<svg width="32" height="32" viewBox="0 0 32 32" fill="none" xmlns="http://www.w3.org/2000/svg">
<path fill-rule="evenodd" clip-rule="evenodd" d="M16 1.33325C13.5246 1.33325 11.1507 2.31658 9.40034 4.06692C7.65 5.81726 6.66667 8.19123 6.66667 10.6666C6.66667 15.1368 5.71058 17.9128 4.82947 19.5281C4.38708 20.3392 3.9563 20.8712 3.65707 21.1871C3.5071 21.3454 3.38925 21.4503 3.3183 21.5095C3.2828 21.5391 3.259 21.5572 3.24873 21.5648L3.24492 21.5677C2.76694 21.896 2.55542 22.4966 2.72388 23.053C2.89414 23.6153 3.41245 23.9999 4 23.9999H28C28.5876 23.9999 29.1059 23.6153 29.2761 23.053C29.4446 22.4966 29.2331 21.896 28.7551 21.5677L28.7513 21.5648C28.741 21.5572 28.7172 21.5391 28.6817 21.5095C28.6108 21.4503 28.4929 21.3454 28.3429 21.1871C28.0437 20.8712 27.6129 20.3392 27.1705 19.5281C26.2894 17.9128 25.3333 15.1368 25.3333 10.6666C25.3333 8.19123 24.35 5.81726 22.5997 4.06692C20.8493 2.31658 18.4754 1.33325 16 1.33325ZM24.8295 20.8051C24.9309 20.9911 25.0328 21.167 25.1342 21.3333H6.86577C6.96722 21.167 7.06907 20.9911 7.17053 20.8051C8.28943 18.7537 9.33334 15.5297 9.33334 10.6666C9.33334 8.89848 10.0357 7.20278 11.286 5.95254C12.5362 4.7023 14.2319 3.99992 16 3.99992C17.7681 3.99992 19.4638 4.7023 20.714 5.95254C21.9643 7.20278 22.6667 8.89847 22.6667 10.6666C22.6667 15.5297 23.7106 18.7537 24.8295 20.8051Z" fill="#F5F5F5"/>
<path d="M14.8467 27.3309C14.4772 26.6939 13.6613 26.4771 13.0243 26.8466C12.3874 27.2161 12.1705 28.032 12.54 28.6689C12.8916 29.2751 13.3963 29.7782 14.0036 30.128C14.6108 30.4778 15.2993 30.6619 16 30.6619C16.7008 30.6619 17.3892 30.4778 17.9965 30.128C18.6037 29.7782 19.1084 29.2751 19.46 28.6689C19.8295 28.032 19.6127 27.2161 18.9757 26.8466C18.3388 26.4771 17.5229 26.6939 17.1534 27.3309C17.0362 27.5329 16.8679 27.7007 16.6655 27.8172C16.4631 27.9338 16.2336 27.9952 16 27.9952C15.7664 27.9952 15.537 27.9338 15.3345 27.8172C15.1321 27.7007 14.9639 27.5329 14.8467 27.3309Z" fill="#F5F5F5"/>
</svg>
