<svg width="50" height="50" viewBox="0 0 50 50" fill="none" xmlns="http://www.w3.org/2000/svg">
<path fill-rule="evenodd" clip-rule="evenodd" d="M18.6708 38.4771C12.5396 33.7792 4.16667 26.0187 4.16667 18.6812C4.16667 6.42291 15.625 1.84582 25 11.3125C34.375 1.84582 45.8333 6.42291 45.8333 18.6812C45.8333 26.0187 37.4583 33.7792 31.3292 38.4771C28.5542 40.6021 27.1667 41.6667 25 41.6667C22.8333 41.6667 21.4458 40.6042 18.6708 38.4771ZM34.375 13.0208C34.7894 13.0208 35.1868 13.1854 35.4799 13.4785C35.7729 13.7715 35.9375 14.1689 35.9375 14.5833V17.1875H38.5417C38.9561 17.1875 39.3535 17.3521 39.6465 17.6451C39.9396 17.9382 40.1042 18.3356 40.1042 18.75C40.1042 19.1644 39.9396 19.5618 39.6465 19.8548C39.3535 20.1479 38.9561 20.3125 38.5417 20.3125H35.9375V22.9167C35.9375 23.3311 35.7729 23.7285 35.4799 24.0215C35.1868 24.3145 34.7894 24.4792 34.375 24.4792C33.9606 24.4792 33.5632 24.3145 33.2702 24.0215C32.9771 23.7285 32.8125 23.3311 32.8125 22.9167V20.3125H30.2083C29.7939 20.3125 29.3965 20.1479 29.1035 19.8548C28.8105 19.5618 28.6458 19.1644 28.6458 18.75C28.6458 18.3356 28.8105 17.9382 29.1035 17.6451C29.3965 17.3521 29.7939 17.1875 30.2083 17.1875H32.8125V14.5833C32.8125 14.1689 32.9771 13.7715 33.2702 13.4785C33.5632 13.1854 33.9606 13.0208 34.375 13.0208Z" fill="#F5F5F5"/>
</svg>
