<?xml version="1.0" encoding="UTF-8"?>
<svg id="Layer_1" data-name="Layer 1" xmlns="http://www.w3.org/2000/svg" viewBox="0 0 500 500">
  <defs>
    <style>
      .cls-1 {
        fill: #f8ffe5;
      }
    </style>
  </defs>
  <path class="cls-1" d="M61.52,232.82c2.31-2.78,5.78-8.1,9.83-8.1,6.82,0,6.82,10.53,7.29,15.04l.35.23c4.4-6.59,13.65-23.25,22.67-23.25,4.4,0,7.4,4.63,7.4,8.79,0,10.87-2.31,21.4-2.31,32.16,0,5.21,3.01,10.41,3.01,15.15,0,5.21-4.16,7.75-8.79,7.75-9.14,0-11.57-9.14-11.57-16.89,0-10.53,3.24-20.24,4.4-30.54-3.35,4.4-13.88,24.29-17.93,24.29-4.4,0-5.67-6.71-6.13-12.84-.58-9.02-2.54-11.1-6.83-1.27-3.35,8.1-4.4,20.71-8.1,30.89-.81,2.31-3.12,4.16-5.78,4.16-5.21,0-6.83-4.05-6.83-8.68s1.16-9.95,1.74-14.58c1.27-11.22,1.04-21.52,1.04-32.39,0-5.21,3.12-9.49,8.33-9.49,10.64,0,8.56,12.49,7.87,19.55h.35Z"/>
  <path class="cls-1" d="M132.19,237.1c-.93,8.44-1.27,20.36-.93,27.42.58,8.68-1.62,9.6-6.48,10.06-3.59.46-7.06-3.35-8.33-8.56-2.78-9.49-3.12-25.1-1.5-30.19,1.04-8.44,19.09-11.92,17.24,1.27ZM116.81,214.77c.58-5.21,4.05-9.02,8.79-8.56,4.51.58,8.33,4.16,7.75,9.25-.46,4.97-4.86,8.68-9.25,8.21-4.51-.23-7.63-3.93-7.29-8.91Z"/>
  <path class="cls-1" d="M138.78,268.22c0-4.28.46-8.56.93-12.72.23-2.66.69-14.92-.23-21.52-.93-6.94,10.64-13.65,12.26-3.35.35,2.54.35,5.44.69,7.17,3.12-3.82,9.14-12.03,14.46-12.03,4.86,0,8.79,2.2,10.3,7.29,2.78,9.37,0,25.1,0,30.77,0,3.93,1.27,5.55,1.27,8.56,0,3.7-3.47,5.67-6.71,5.67-6.94,0-9.83-5.9-9.83-16.19,0-2.78.35-6.36.81-9.83,1.39-10.76.12-14.46-2.66-10.64-4.4,6.25-6.94,14.23-8.1,21.63-.93,5.67-2.66,10.06-7.63,10.06-2.78,0-5.55-1.85-5.55-4.86Z"/>
  <path class="cls-1" d="M211.89,221.6c1.16-6.83,5.21-25.1,14.58-26.03,5.9-.35,7.4,3.7,6.59,7.87-2.89,12.72-11.45,44.54-9.02,61.42,1.16,8.1,5.32,6.59,5.67,10.41.35,2.43-1.97,4.63-4.74,4.97-7.75.69-10.76-6.94-13.3-11.92-3.01,2.78-5.32,5.44-10.06,5.9-11.45,1.16-16.43-12.72-17.24-20.71-1.5-12.03,3.59-31.12,19.67-32.74,2.66-.23,4.74.23,7.29.81h.58ZM199.39,257c.35,1.85,1.27,6.48,4.16,6.13,5.9-.46,12.38-26.95,4.28-28.92-7.98.81-8.91,17.81-8.44,22.79Z"/>
  <path class="cls-1" d="M255.26,211.88c-4.28,26.84-3.93,45.81-2.66,62.46.23,3.24-1.39,5.78-5.32,6.13-20.01,1.73-9.02-63.97-5.32-72.65,3.35-7.52,14.92-6.48,13.3,4.05Z"/>
  <path class="cls-1" d="M290.78,253.87c2.54-3.12,6.25-6.13,9.49-2.89,1.85,1.62,2.54,4.51,1.39,7.29-1.5,3.36-4.51,7.87-9.02,11.45-14.69,11.92-32.62,6.02-33.08-13.88-.12-6.48,1.04-13.07,2.78-17.7,2.2-5.9,5.67-10.99,11.11-13.88,10.76-5.78,22.79-1.04,22.79,11.68,0,12.03-11.8,18.62-21.75,22.09,1.39,9.6,12.03.81,16.31-4.17ZM285.11,237.22c0-.93-.93-1.97-1.97-1.97-3.35,0-5.9,8.68-6.02,11.11,3.12-1.39,7.98-5.44,7.98-9.14Z"/>
  <path class="cls-1" d="M300.84,245.08c0-6.94,7.4-6.13,12.03-6.13h4.51c1.74-9.25,7.4-42.57,19.43-42.57,3.93,0,7.63,3.35,7.63,7.29,0,3.47-7.63,28.22-8.91,34.36,3.93,0,13.77-.92,13.77,5.32s-11.1,5.78-15.62,6.36c-.46,2.08-.69,4.05-.69,6.02,0,5.32,1.73,17.12,5.44,20.94,1.04.92,1.85,2.08,1.85,3.59,0,4.05-4.16,5.9-7.52,5.9-14.11,0-14.92-24.41-15.62-34.24-4.74-.46-16.31.35-16.31-6.83Z"/>
  <path class="cls-1" d="M370.01,237.1c-.93,8.44-1.27,20.36-.93,27.42.58,8.68-1.62,9.6-6.48,10.06-3.59.46-7.06-3.35-8.33-8.56-2.78-9.49-3.12-25.1-1.5-30.19,1.04-8.44,19.09-11.92,17.24,1.27ZM354.63,214.77c.58-5.21,4.05-9.02,8.79-8.56,4.51.58,8.33,4.16,7.75,9.25-.46,4.97-4.86,8.68-9.25,8.21-4.51-.23-7.63-3.93-7.29-8.91Z"/>
  <path class="cls-1" d="M416.97,243.69c4.28,0,6.59,4.74,6.59,8.79,0,12.61-12.72,26.95-25.68,26.95-14.46,0-22.33-15.96-22.33-28.69,0-16.54,11.34-43.03,31-43.03,9.6,0,17.58,7.63,17.58,17.24,0,3.7-1.97,10.06-6.25,10.06-7.06,0-2.78-10.76-10.53-10.76-13.65,0-23.71,40.02-9.72,40.02,10.41,0,11.8-20.59,19.32-20.59Z"/>
  <path class="cls-1" d="M426.22,278.05c0-3.93,6.82-7.98,11.57-11.22,6.94-4.74,4.28-6.25-1.27-10.41-4.16-3.01-8.79-6.01-8.79-13.88,0-10.76,10.87-28.11,22.67-28.11,4.28,0,8.44,3.35,8.44,7.98,0,6.25-15.62,10.53-15.62,20.94,0,4.86,14.23,12.96,14.23,22.44,0,10.29-14.69,19.32-23.94,19.32-3.24,0-7.29-3.36-7.29-7.06Z"/>
</svg>