<svg width="32" height="32" viewBox="0 0 32 32" fill="none" xmlns="http://www.w3.org/2000/svg">
<path fill-rule="evenodd" clip-rule="evenodd" d="M16.8186 1.61421C16.3371 1.23972 15.6629 1.23972 15.1814 1.61421L3.18143 10.9475C2.85665 11.2001 2.66669 11.5886 2.66669 12V26.6667C2.66669 27.7275 3.08811 28.745 3.83826 29.4951C4.5884 30.2453 5.60582 30.6667 6.66669 30.6667H25.3334C26.3942 30.6667 27.4116 30.2453 28.1618 29.4951C28.9119 28.745 29.3334 27.7275 29.3334 26.6667V12C29.3334 11.5886 29.1434 11.2001 28.8186 10.9475L16.8186 1.61421ZM21.3334 28H25.3334C25.687 28 26.0261 27.8595 26.2762 27.6095C26.5262 27.3594 26.6667 27.0203 26.6667 26.6667V12.6521L16 4.35583L5.33335 12.6521V26.6667C5.33335 27.0203 5.47383 27.3594 5.72388 27.6095C5.97393 27.8595 6.31307 28 6.66669 28H10.6667V16C10.6667 15.2636 11.2636 14.6667 12 14.6667H20C20.7364 14.6667 21.3334 15.2636 21.3334 16V28ZM13.3334 28V17.3333H18.6667V28H13.3334Z" fill="#F5F5F5"/>
</svg>
