<svg width="32" height="32" viewBox="0 0 32 32" fill="none" xmlns="http://www.w3.org/2000/svg">
<path fill-rule="evenodd" clip-rule="evenodd" d="M22.6667 2.66668C22.6667 1.9303 22.0697 1.33334 21.3334 1.33334C20.597 1.33334 20 1.9303 20 2.66668V4.00001H12V2.66668C12 1.9303 11.4031 1.33334 10.6667 1.33334C9.93031 1.33334 9.33335 1.9303 9.33335 2.66668V4.00001H6.66669C4.45755 4.00001 2.66669 5.79087 2.66669 8.00001V26.6667C2.66669 28.8758 4.45755 30.6667 6.66669 30.6667H25.3334C27.5425 30.6667 29.3334 28.8758 29.3334 26.6667V8.00001C29.3334 5.79087 27.5425 4.00001 25.3334 4.00001H22.6667V2.66668ZM26.6667 12V8.00001C26.6667 7.26363 26.0697 6.66668 25.3334 6.66668H22.6667V8.00001C22.6667 8.73639 22.0697 9.33334 21.3334 9.33334C20.597 9.33334 20 8.73639 20 8.00001V6.66668H12V8.00001C12 8.73639 11.4031 9.33334 10.6667 9.33334C9.93031 9.33334 9.33335 8.73639 9.33335 8.00001V6.66668H6.66669C5.93031 6.66668 5.33335 7.26363 5.33335 8.00001V12H26.6667ZM5.33335 14.6667H26.6667V26.6667C26.6667 27.4031 26.0697 28 25.3334 28H6.66669C5.93031 28 5.33335 27.4031 5.33335 26.6667V14.6667Z" fill="#F5F5F5"/>
</svg>
