<svg width="50" height="50" viewBox="0 0 50 50" fill="none" xmlns="http://www.w3.org/2000/svg">
<path d="M18.9917 28.6437L16.6667 10.3083L14.3417 28.6417H6.24999C5.09999 28.6417 4.16666 27.7312 4.16666 26.6083C4.17325 26.062 4.39632 25.5407 4.78691 25.1587C5.1775 24.7767 5.70369 24.5653 6.24999 24.5708H10.6583L12.5333 9.80832C12.8125 7.57499 14.8958 5.99166 17.1771 6.26666C19.0729 6.49582 20.5646 7.95416 20.8 9.80832L22.6729 24.5708H26.7854L29.1667 39.6667L31.5458 24.5729H43.75C44.9 24.5729 45.8333 25.4854 45.8333 26.6104C45.8333 27.7354 44.9 28.6458 43.75 28.6458H35.1208L33.2854 40.2854C33.1419 41.1493 32.7268 41.9451 32.1005 42.5572C31.4741 43.1693 30.6691 43.5659 29.8021 43.6896C27.5271 44.0333 25.4 42.5083 25.0479 40.2854L23.2146 28.6458H18.9896L18.9917 28.6437Z" fill="#F5F5F5"/>
</svg>
