<svg width="32" height="32" viewBox="0 0 32 32" fill="none" xmlns="http://www.w3.org/2000/svg">
<path d="M24.9428 8.94277C25.4635 8.42207 25.4635 7.57785 24.9428 7.05715C24.4221 6.53645 23.5779 6.53645 23.0572 7.05715L16 14.1143L8.94283 7.05715C8.42213 6.53645 7.57791 6.53645 7.05721 7.05715C6.53651 7.57785 6.53651 8.42207 7.05721 8.94277L14.1144 16L7.05721 23.0571C6.53651 23.5778 6.53651 24.4221 7.05721 24.9428C7.57791 25.4635 8.42213 25.4635 8.94283 24.9428L16 17.8856L23.0572 24.9428C23.5779 25.4635 24.4221 25.4635 24.9428 24.9428C25.4635 24.4221 25.4635 23.5778 24.9428 23.0571L17.8856 16L24.9428 8.94277Z" fill="#F5F5F5"/>
</svg>
